<svg xmlns="http://www.w3.org/2000/svg" viewBox="0 0 500 500">
  <!-- Dark background gradient for reference, can be made transparent by removing -->
  <defs>
    <radialGradient id="darkBlueGrad" cx="50%" cy="50%" r="70%" fx="50%" fy="50%">
      <stop offset="0%" stop-color="#101042" stop-opacity="0.8"/>
      <stop offset="100%" stop-color="#05051E" stop-opacity="0.9"/>
    </radialGradient>
    
    <radialGradient id="cyanGlow" cx="50%" cy="50%" r="70%" fx="50%" fy="50%">
      <stop offset="0%" stop-color="#00EEFF" stop-opacity="0.4"/>
      <stop offset="70%" stop-color="#00EEFF" stop-opacity="0.1"/>
      <stop offset="100%" stop-color="#00EEFF" stop-opacity="0"/>
    </radialGradient>
    
    <filter id="blurEffect" x="-50%" y="-50%" width="200%" height="200%">
      <feGaussianBlur in="SourceGraphic" stdDeviation="2" />
    </filter>
  </defs>
  
  <!-- Outer ring with texture -->
  <g>
    <!-- Main outer ring -->
    <circle cx="250" cy="250" r="120" fill="none" stroke="#00EEFF" stroke-width="10" stroke-opacity="0.9"/>
    
    <!-- Secondary outer ring -->
    <circle cx="250" cy="250" r="130" fill="none" stroke="#00EEFF" stroke-width="3" stroke-opacity="0.6"/>
    
    <!-- Texture details on outer ring -->
    <path d="M250 380 L250 390" stroke="#00EEFF" stroke-width="14" stroke-opacity="0.9" stroke-linecap="round"/>
    <path d="M250 120 L250 110" stroke="#00EEFF" stroke-width="14" stroke-opacity="0.9" stroke-linecap="round"/>
    <path d="M380 250 L390 250" stroke="#00EEFF" stroke-width="14" stroke-opacity="0.9" stroke-linecap="round"/>
    <path d="M120 250 L110 250" stroke="#00EEFF" stroke-width="14" stroke-opacity="0.9" stroke-linecap="round"/>
    
    <!-- Subtle ring texture elements -->
    <path d="M340 340 L350 350" stroke="#00EEFF" stroke-width="3" stroke-opacity="0.7"/>
    <path d="M160 160 L150 150" stroke="#00EEFF" stroke-width="3" stroke-opacity="0.7"/>
    <path d="M340 160 L350 150" stroke="#00EEFF" stroke-width="3" stroke-opacity="0.7"/>
    <path d="M160 340 L150 350" stroke="#00EEFF" stroke-width="3" stroke-opacity="0.7"/>
  </g>
  
  <!-- Inner target elements -->
  <g>
    <circle cx="250" cy="250" r="45" fill="none" stroke="#00EEFF" stroke-width="8" stroke-opacity="0.9"/>
    <circle cx="250" cy="250" r="25" fill="#00EEFF" fill-opacity="0.5"/>
    <circle cx="250" cy="250" r="15" fill="#00EEFF" fill-opacity="0.9"/>
  </g>
  
  <!-- Crosshair lines -->
  <g>
    <!-- Main horizontal lines -->
    <line x1="40" y1="250" x2="165" y2="250" stroke="#00EEFF" stroke-width="8" stroke-opacity="0.9"/>
    <line x1="335" y1="250" x2="460" y2="250" stroke="#00EEFF" stroke-width="8" stroke-opacity="0.9"/>
    
    <!-- Main vertical lines -->
    <line x1="250" y1="40" x2="250" y2="165" stroke="#00EEFF" stroke-width="8" stroke-opacity="0.9"/>
    <line x1="250" y1="335" x2="250" y2="460" stroke="#00EEFF" stroke-width="8" stroke-opacity="0.9"/>
    
    <!-- Horizontal detail lines -->
    <line x1="65" y1="250" x2="85" y2="250" stroke="#00EEFF" stroke-width="4" stroke-opacity="0.7"/>
    <line x1="90" y1="250" x2="105" y2="250" stroke="#00EEFF" stroke-width="3" stroke-opacity="0.6"/>
    <line x1="415" y1="250" x2="435" y2="250" stroke="#00EEFF" stroke-width="4" stroke-opacity="0.7"/>
    <line x1="395" y1="250" x2="410" y2="250" stroke="#00EEFF" stroke-width="3" stroke-opacity="0.6"/>
    
    <!-- Vertical detail lines -->
    <line x1="250" y1="65" x2="250" y2="85" stroke="#00EEFF" stroke-width="4" stroke-opacity="0.7"/>
    <line x1="250" y1="90" x2="250" y2="105" stroke="#00EEFF" stroke-width="3" stroke-opacity="0.6"/>
    <line x1="250" y1="415" x2="250" y2="435" stroke="#00EEFF" stroke-width="4" stroke-opacity="0.7"/>
    <line x1="250" y1="395" x2="250" y2="410" stroke="#00EEFF" stroke-width="3" stroke-opacity="0.6"/>
  </g>
  
  <!-- Subtle glow effects -->
  <circle cx="250" cy="250" r="200" fill="url(#cyanGlow)" filter="url(#blurEffect)"/>
  <circle cx="250" cy="250" r="80" fill="url(#cyanGlow)" filter="url(#blurEffect)"/>
  
  <!-- Additional texture elements -->
  <g stroke="#00EEFF" stroke-opacity="0.4">
    <path d="M175 250 L190 250" stroke-width="2"/>
    <path d="M310 250 L325 250" stroke-width="2"/>
    <path d="M250 175 L250 190" stroke-width="2"/>
    <path d="M250 310 L250 325" stroke-width="2"/>
  </g>
</svg>